<svg xmlns="http://www.w3.org/2000/svg" xmlns:xlink="http://www.w3.org/1999/xlink" viewBox="0 0 808.89 810.44"><defs><style>.cls-1,.cls-3{fill:#0071bc;}.cls-1,.cls-2,.cls-21,.cls-22,.cls-23,.cls-24,.cls-25,.cls-27,.cls-28,.cls-29,.cls-30,.cls-31,.cls-32,.cls-33,.cls-34,.cls-35,.cls-36,.cls-37,.cls-39{stroke:#000;stroke-miterlimit:10;}.cls-1,.cls-21,.cls-28{stroke-width:9px;}.cls-2,.cls-23,.cls-28{fill:#fff;}.cls-2,.cls-22,.cls-24,.cls-31,.cls-33,.cls-39{stroke-width:4px;}.cls-4{clip-path:url(#clip-path);}.cls-5{fill:url(#linear-gradient);}.cls-6{fill:url(#linear-gradient-2);}.cls-7{fill:url(#linear-gradient-3);}.cls-8{fill:url(#linear-gradient-4);}.cls-9{fill:url(#linear-gradient-5);}.cls-10{fill:url(#linear-gradient-6);}.cls-11{fill:url(#linear-gradient-7);}.cls-12{fill:url(#linear-gradient-8);}.cls-13{fill:url(#linear-gradient-9);}.cls-14{fill:url(#linear-gradient-10);}.cls-15{fill:url(#linear-gradient-11);}.cls-16{fill:url(#linear-gradient-12);}.cls-17{fill:url(#linear-gradient-13);}.cls-18{fill:url(#linear-gradient-14);}.cls-19{fill:url(#linear-gradient-15);}.cls-20{fill:url(#linear-gradient-16);}.cls-21,.cls-25,.cls-34{fill:none;}.cls-22{fill:#eeddd5;}.cls-23,.cls-29,.cls-32{stroke-width:3px;}.cls-25{stroke-width:6px;}.cls-26{fill:#d4145a;}.cls-27{stroke-width:0.75px;}.cls-29,.cls-33,.cls-35{fill:#545253;}.cls-31,.cls-37{fill:#827c7e;}.cls-32{fill:#cf1c24;}.cls-34,.cls-35,.cls-37{stroke-width:5px;}.cls-36{fill:#333;}.cls-38{fill:#090201;stroke:#090201;stroke-width:0.09px;}.cls-39{fill:#c1272d;}</style><clipPath id="clip-path" transform="translate(-102.11 -129.32)"><path class="cls-1" d="M860.5,507.5C860.5,706.6,699.1,868,500,868S139.5,706.6,139.5,507.5,300.9,147,500,147,860.5,308.4,860.5,507.5Z"/></clipPath><linearGradient id="linear-gradient" x1="443.9" y1="639.61" x2="503.01" y2="639.61" gradientUnits="userSpaceOnUse"><stop offset="0" stop-color="#00d586"/><stop offset="0.37" stop-color="#08d88f"/><stop offset="0.99" stop-color="#1ee0a9"/><stop offset="1" stop-color="#1ee0a9"/></linearGradient><linearGradient id="linear-gradient-2" x1="302.08" y1="557.73" x2="473.45" y2="557.73" xlink:href="#linear-gradient"/><linearGradient id="linear-gradient-3" x1="503.01" y1="592.31" x2="571.99" y2="592.31" xlink:href="#linear-gradient"/><linearGradient id="linear-gradient-4" x1="311.08" y1="705.91" x2="426.23" y2="705.91" xlink:href="#linear-gradient"/><linearGradient id="linear-gradient-5" x1="485.97" y1="490.77" x2="642.83" y2="490.77" xlink:href="#linear-gradient"/><linearGradient id="linear-gradient-6" x1="320.4" y1="443.66" x2="463.31" y2="443.66" xlink:href="#linear-gradient"/><linearGradient id="linear-gradient-7" x1="554.07" y1="608.96" x2="708.56" y2="608.96" xlink:href="#linear-gradient"/><linearGradient id="linear-gradient-8" x1="432.29" y1="332.37" x2="635.18" y2="332.37" xlink:href="#linear-gradient"/><linearGradient id="linear-gradient-9" x1="204.59" y1="384.1" x2="417.57" y2="384.1" xlink:href="#linear-gradient"/><linearGradient id="linear-gradient-10" x1="616.47" y1="363.35" x2="759.38" y2="363.35" xlink:href="#linear-gradient"/><linearGradient id="linear-gradient-11" x1="246.41" y1="239.56" x2="419.05" y2="239.56" xlink:href="#linear-gradient"/><linearGradient id="linear-gradient-12" x1="680.18" y1="453.95" x2="911" y2="453.95" xlink:href="#linear-gradient"/><linearGradient id="linear-gradient-13" x1="122.61" y1="495.05" x2="295.24" y2="495.05" xlink:href="#linear-gradient"/><linearGradient id="linear-gradient-14" x1="713.49" y1="604.48" x2="856.4" y2="604.48" xlink:href="#linear-gradient"/><linearGradient id="linear-gradient-15" x1="102.11" y1="639.61" x2="307.08" y2="639.61" xlink:href="#linear-gradient"/><linearGradient id="linear-gradient-16" x1="601.99" y1="218.75" x2="758.38" y2="218.75" xlink:href="#linear-gradient"/></defs><title>var7</title><g id="bace"><path class="cls-2" d="M666,418" transform="translate(-102.11 -129.32)"/><g id="Layer_6" data-name="Layer 6"><path class="cls-3" d="M860.5,507.5C860.5,706.6,699.1,868,500,868S139.5,706.6,139.5,507.5,300.9,147,500,147,860.5,308.4,860.5,507.5Z" transform="translate(-102.11 -129.32)"/><g class="cls-4"><path class="cls-5" d="M489.15,597.37c0-.13,0-.26,0-.38,0-2.34-1.32-4.26-3.21-4.6l-.16,0c-2-.36-4.07,1.18-4.75,3.6-.25.91-.49,1.83-.72,2.74-5,20-4.57,41-7.37,61.46,0,0,0,0,0,0a14.53,14.53,0,0,0-13.59-5c-8.87,1.28-15.78,9.39-15.42,18.12s7.83,14.77,16.71,13.49a17.73,17.73,0,0,0,7-2.62,18.66,18.66,0,0,0,5.71-5.72c2.47-3.88,3.11-9.38,4-13.92,1.08-5.62,1.87-11.29,2.56-17,1.36-11.23,2.32-22.52,4.34-33.68,0,0,0,0,0,0,7.73,17.8,22.6,36.2,3.55,52.28,0,0,0,0,0,0C521,645.74,489.65,620.54,489.15,597.37Z" transform="translate(-102.11 -129.32)"/><path class="cls-6" d="M421.39,589.87c5.35-5.91,10.42-12.06,15.52-18.18,6.34-7.6,36.54-39.88,36.54-39.88C454.21,519.44,413,522,396.77,506.5c-3.83,1.92-16.54,16.18-16.53,16.19-13.71,14.57-24.9,31.58-38.12,46.63A18.62,18.62,0,0,0,331.55,555c-9.79-4.87-21.94-1.71-27.13,7s-1.45,19.81,8.34,24.68a22.17,22.17,0,0,0,8.75,2.26,21.42,21.42,0,0,0,12.18-3.07c6.09-3.74,11.5-10.68,16.32-16,5.35-5.91,10.42-12.06,15.53-18.18a311.28,311.28,0,0,1,21.73-24.2c17.29,9.07,45.23,8,62.48,17.09-12.87,14.11-23.63,30.26-36.25,44.62A18.62,18.62,0,0,0,402.93,575c-9.8-4.87-21.95-1.71-27.13,7s-1.46,19.81,8.34,24.68a22.13,22.13,0,0,0,8.74,2.26,21.45,21.45,0,0,0,12.19-3.07C411.16,602.13,416.57,595.19,421.39,589.87Z" transform="translate(-102.11 -129.32)"/><path class="cls-7" d="M511.24,549.76l-.33-.18a5.2,5.2,0,0,0-6.35,1.18l-.14.15a5.13,5.13,0,0,0-.26,6.77c.62.71,1.25,1.4,1.89,2.09,13.95,15,32.7,24.67,48.6,37.5,0,0,0,0,0,0-5.51,1.42-10.9,5.71-14.19,12-5.26,10-3.11,21.25,4.8,25.09s18.59-1.16,23.86-11.17a24.87,24.87,0,0,0,2.73-8.67,19.27,19.27,0,0,0-.91-8.81c-1.63-4.49-6-7.82-9.34-11-4.15-3.86-8.56-7.43-13-10.9C539.68,577,530.47,570.5,522.14,563c0,0,0,0,0,0,21.17.42,48-6.44,48.41,21.51,0,0,0,0,0,0C576.57,539.46,531.93,560.43,511.24,549.76ZM562,620.84c-3.68,6.27-10.2,9.41-14.56,7s-4.9-9.44-1.22-15.71,10.2-9.42,14.55-7S565.64,614.57,562,620.84Z" transform="translate(-102.11 -129.32)"/><path class="cls-8" d="M414.52,681.8c-4.42-7.93-9.23-15.63-14-23.36-5.91-9.59-29.67-54-29.67-54-21.74,16.92-35.76,63.14-59.78,75.7.58,4.87,11.33,23.78,11.35,23.77,10.69,20.12,25.15,38.29,36.58,58-6.78-1.24-14.43,1-20.35,6.71-9.47,9.11-10.91,23.57-3.23,32.3s21.59,8.42,31.05-.69a27,27,0,0,0,6.12-8.84A24.34,24.34,0,0,0,374.16,777c-1.7-8-7.25-16.34-11.23-23.48-4.42-7.93-9.23-15.63-14-23.36C342.47,719.66,336,709,330.76,697.89c17.23-15.91,27.49-47,44.75-62.9,10.52,19,24.19,36.45,35.09,55.28-6.78-1.24-14.43,1-20.35,6.71-9.47,9.11-10.91,23.57-3.23,32.3s21.59,8.42,31.05-.69a26.9,26.9,0,0,0,6.12-8.84,24.34,24.34,0,0,0,1.56-14.47C424.05,697.28,418.5,688.94,414.52,681.8Zm-54.2,112.72c-6.76,6-15.86,6.38-20.33.91s-2.62-14.74,4.14-20.71,15.86-6.38,20.33-.91S367.08,788.55,360.32,794.52Zm50.74-72c-6.76,6-15.86,6.37-20.33.9s-2.62-14.74,4.14-20.71,15.86-6.37,20.33-.9S417.82,716.55,411.06,722.52Z" transform="translate(-102.11 -129.32)"/><path class="cls-9" d="M635.76,475.13l0-.13q3.51-12,7-24.08l-.2-.22c-22.54-24.85-58.69-4.8-84.3-19.51-3.18-1.82-10.26-4.7-10.26-4.7-11.4,23.61-11.29,50.58-17.11,75.82-4.48-5.1-12-8.66-20.53-9-13.61-.59-24.57,7.19-24.46,17.39s11.22,18.95,24.83,19.54a30.63,30.63,0,0,0,10.81-1.4c13.48-4.38,15.49-18.26,18.31-29.62,3.7-14.89,5.72-30.17,9.74-45,22.62,15.22,54.19-.23,77.23,13.54C621.4,487,620.46,507.58,616,527.12c-4.48-5.11-12-8.67-20.53-9-13.61-.59-24.57,7.2-24.46,17.4s11.22,18.94,24.83,19.54a30.86,30.86,0,0,0,10.81-1.4c14-4.55,16.06-20,18.89-32C629.14,506.18,631.2,490.35,635.76,475.13Z" transform="translate(-102.11 -129.32)"/><path class="cls-10" d="M455.86,380.17c.06-.23.12-.46.19-.68a9.24,9.24,0,0,0-4.44-10.74l-.33-.17a9.17,9.17,0,0,0-11.9,2.8q-1.51,2.16-2.94,4.37c-20.91,32.09-30.73,70.17-47.13,104.69,0,0,0,0-.06,0-4.55-9.14-14.08-16.67-26.22-19.51-19.47-4.54-38.26,4.71-42,20.66s9,32.56,28.5,37.11a42.91,42.91,0,0,0,16.16.68,35.58,35.58,0,0,0,15-5.86c7.22-5.08,11.39-14.45,15.58-21.94,5.17-9.26,9.75-18.83,14.12-28.48C419.1,444,426.92,424.44,436.91,406c0,0,.06,0,.06,0,7.26,37.92,29.35,82.45-19.28,96.64,0,0,0,.06,0,.06C498.49,491.58,445.05,422.17,455.86,380.17ZM350.93,504.83c-12.34-3.53-20.27-13.62-17.72-22.54s14.62-13.3,27-9.77,20.27,13.62,17.72,22.55S363.27,508.36,350.93,504.83Z" transform="translate(-102.11 -129.32)"/><path class="cls-11" d="M667.8,517.6c0-.28,0-.55,0-.83a10.87,10.87,0,0,0-8.9-10.38l-.44-.08a10.83,10.83,0,0,0-12.29,7.51q-.89,3-1.68,6c-11.62,43.57-8.64,89.77-14.32,134.41,0,0,0,0-.06,0-8.44-8.56-21.87-13.49-36.5-12.21-23.44,2.06-41.08,19.3-39.39,38.51s22.06,33.12,45.5,31.06A50.41,50.41,0,0,0,618,706.42a41.87,41.87,0,0,0,14.67-12.08c6.21-8.32,7.44-20.34,9.38-30.26,2.39-12.25,4-24.64,5.35-37,2.67-24.57,4.25-49.29,8.65-73.64a0,0,0,0,1,.07,0c22,39.76,63.08,81.47,13.88,115.18,0,0,0,.08,0,.06C756.36,626.6,671.11,568.56,667.8,517.6Z" transform="translate(-102.11 -129.32)"/><path class="cls-12" d="M608.66,294.2c-16.51-18.06-34.68-34.58-50.23-53.51l-.13-.16q-12.37-14.86-24.74-29.74l-.42,0c-47.79,4.59-49.86,65.21-87.32,82.45-4.64,2.14-13.53,8-13.53,8,20.88,34.49,54.56,58.34,81.65,87.68-9.71.76-19.78,6.51-26.61,16.26-10.91,15.59-9.41,35.49,3.37,44.43s32,3.56,42.91-12a40.72,40.72,0,0,0,6.33-14c4.63-19.85-11.15-34.57-23.2-48C501,357.92,483.45,342,468,324c35.86-13.24,40.22-64.35,74.6-79.38,19.87,23.61,44.79,43,65.75,65.73-9.71.76-19.78,6.52-26.6,16.27-10.92,15.59-9.41,35.48,3.37,44.43s32,3.56,42.9-12a40.81,40.81,0,0,0,6.33-14C639.19,324.36,621.42,308.17,608.66,294.2ZM522.28,432.54c-7.62,10.33-19.85,14.23-27.32,8.72s-7.34-18.35.28-28.67,19.86-14.23,27.32-8.72S529.9,422.21,522.28,432.54Zm95-79.85c-7.92,10.1-20.26,13.64-27.56,7.92s-6.8-18.56,1.11-28.66S611.1,318.31,618.4,324,625.21,342.59,617.29,352.69Z" transform="translate(-102.11 -129.32)"/><path class="cls-13" d="M412.91,342.28c.21-.19.42-.36.63-.54a10.86,10.86,0,0,0,2.84-13.38l-.2-.39a10.82,10.82,0,0,0-13.42-5.2q-2.91,1.1-5.77,2.28c-41.66,17.22-76.57,47.64-115.49,70.23a0,0,0,0,1-.05,0c1.67-11.91-2.57-25.57-12.47-36.41-15.86-17.38-40.27-20.92-54.51-7.92s-12.92,37.63,2.94,55a50.17,50.17,0,0,0,15.24,11.43,41.81,41.81,0,0,0,18.5,4.32c10.38-.11,20.68-6.43,29.74-10.92,11.18-5.53,22-11.77,32.68-18.24,21.14-12.79,41.75-26.54,63.76-37.83a0,0,0,0,1,.06.05c-18.22,41.64-26.44,99.58-83.09,81a0,0,0,0,0,0,.07C380.07,478.83,374.43,375.85,412.91,342.28Z" transform="translate(-102.11 -129.32)"/><path class="cls-14" d="M751.93,299.85l.18-.68a9.22,9.22,0,0,0-4.43-10.73l-.33-.18a9.19,9.19,0,0,0-11.91,2.81c-1,1.44-2,2.9-2.94,4.36-20.9,32.1-30.72,70.17-47.12,104.7a0,0,0,0,1-.06,0c-4.55-9.14-14.08-16.68-26.23-19.51-19.46-4.54-38.26,4.7-42,20.66s9,32.56,28.5,37.1a42.71,42.71,0,0,0,16.16.69,35.51,35.51,0,0,0,15-5.87c7.21-5.07,11.39-14.44,15.58-21.94,5.17-9.25,9.75-18.82,14.12-28.48,8.65-19.12,16.48-38.65,26.47-57.14a0,0,0,0,1,.06,0c7.26,37.92,29.35,82.44-19.28,96.63,0,0,0,.07,0,.06C794.56,411.26,741.11,341.86,751.93,299.85ZM647,424.52C634.66,421,626.72,410.89,629.27,402s14.63-13.29,27-9.76,20.27,13.62,17.72,22.54S659.34,428,647,424.52Z" transform="translate(-102.11 -129.32)"/><path class="cls-15" d="M410.57,218.92l.05-.16,8.43-28.88-.21-.25c-23.72-28.82-63.71-3.82-91.11-20.48a116.9,116.9,0,0,0-11-5.27c-13.17,28.46-13.91,60.54-21.06,90.75-4.71-5.93-12.8-9.92-22-10.08-14.8-.27-27,9.35-27.19,21.47s11.61,22.18,26.4,22.44a31.56,31.56,0,0,0,11.81-2c14.81-5.64,17.45-22.21,20.89-35.83,4.5-17.82,7.19-36.06,12-53.8,24.12,17.37,59-2,83.61,13.61-6.59,23.08-8.29,47.58-13.82,71-4.71-5.93-12.8-9.92-22-10.08-14.8-.27-27,9.35-27.19,21.48s11.61,22.17,26.4,22.44a31.77,31.77,0,0,0,11.81-2c15.4-5.86,18.13-24.36,21.59-38.66C402.37,256.06,405.13,237.17,410.57,218.92Z" transform="translate(-102.11 -129.32)"/><path class="cls-16" d="M878.65,480.47c3.38-11.39,6.14-23,9-34.49,3.51-14.32,23.39-77.1,23.39-77.1-38.84-6-98.89,21.75-135.72,9.65-4.24,4.92-12.08,32.27-12,32.28-9.09,28.39-12.43,58.7-20.41,87.46-5.65-7.7-15.65-13.12-27.3-13.78-18.64-1-34.44,10.49-35.3,25.76s13.56,28.51,32.19,29.56a39.75,39.75,0,0,0,15-2,31.67,31.67,0,0,0,15.93-11.42c6.21-8.8,8.84-21.66,11.88-31.91,3.37-11.39,6.13-22.95,9-34.49,3.84-15.67,7.83-31.42,13.53-46.52C811,416,852.23,398.11,885.47,400.7c-8.19,27.25-11.58,56.1-19.19,83.54-5.65-7.7-15.65-13.12-27.31-13.77-18.63-1.05-34.44,10.48-35.3,25.76s13.56,28.5,32.2,29.55a39.9,39.9,0,0,0,15-2,31.82,31.82,0,0,0,15.94-11.42C873,503.58,875.62,490.72,878.65,480.47ZM711.89,528.65c-12.77-1.22-22.41-9.7-21.53-18.94s12-15.73,24.74-14.51,22.41,9.71,21.53,18.94S724.67,529.87,711.89,528.65Zm122.88-15.12c-12.77-1.22-22.41-9.7-21.53-18.94s12-15.73,24.74-14.51,22.41,9.71,21.53,18.94S847.55,514.75,834.77,513.53Z" transform="translate(-102.11 -129.32)"/><path class="cls-17" d="M286.77,474.41l.05-.16q4.21-14.43,8.42-28.87a2.43,2.43,0,0,0-.2-.25c-23.73-28.83-63.72-3.82-91.11-20.48a116.9,116.9,0,0,0-11-5.27c-13.17,28.46-13.92,60.54-21.06,90.75-4.71-5.93-12.8-9.92-22-10.09-14.8-.26-27,9.35-27.19,21.48S134.21,543.7,149,544a31.4,31.4,0,0,0,11.81-2c14.81-5.63,17.44-22.21,20.88-35.82,4.5-17.82,7.19-36.06,12.05-53.8,24.12,17.37,59-2,83.61,13.61-6.59,23.07-8.29,47.58-13.82,71-4.71-5.93-12.8-9.92-22.05-10.09-14.8-.26-27,9.36-27.19,21.48s11.6,22.18,26.4,22.44a31.6,31.6,0,0,0,11.81-2c15.4-5.86,18.12-24.36,21.58-38.66C278.56,511.56,281.32,492.66,286.77,474.41Z" transform="translate(-102.11 -129.32)"/><path class="cls-18" d="M849,541c0-.22.12-.45.18-.68a9.23,9.23,0,0,0-4.44-10.73l-.33-.18a9.18,9.18,0,0,0-11.9,2.81c-1,1.44-2,2.9-2.94,4.36-20.9,32.1-30.72,70.17-47.13,104.7a0,0,0,0,1,0,0c-4.55-9.14-14.08-16.68-26.23-19.51-19.46-4.54-38.26,4.7-42,20.66s9,32.56,28.5,37.1a42.71,42.71,0,0,0,16.16.69,35.42,35.42,0,0,0,15-5.87c7.22-5.07,11.4-14.44,15.58-21.94,5.18-9.25,9.76-18.82,14.13-28.48,8.65-19.12,16.48-38.65,26.47-57.14a0,0,0,0,1,.06,0c7.25,37.92,29.34,82.44-19.28,96.63,0,0,0,.07,0,.06C891.58,652.39,838.14,583,849,541ZM744,665.65c-12.34-3.53-20.28-13.63-17.73-22.55s14.62-13.29,27-9.76S773.54,647,771,655.88,756.37,669.17,744,665.65Z" transform="translate(-102.11 -129.32)"/><path class="cls-19" d="M192.48,728c23.89-5.24,47.29-12.7,71.46-16.68l.21,0,38.13-6.52.18-.38c20-43.66-31.47-75.81-27.64-116.87.48-5.09-.11-15.71-.11-15.71-40.32.81-77.83,18-116.78,26.76,4.2-8.78,4.26-20.38-.76-31.17-8-17.26-26-25.92-40.14-19.34S97.93,573.93,106,591.18a40.6,40.6,0,0,0,9,12.52c14.86,13.95,35.51,7.66,53.18,4,23.15-4.84,45.75-12,69-16.38-6.5,37.68,35.56,67.05,31.35,104.33-30.39,5.38-59.67,17.22-89.83,24,4.21-8.78,4.27-20.38-.75-31.17-8-17.26-26-25.92-40.15-19.34s-19.1,25.9-11.07,43.16a40.72,40.72,0,0,0,9,12.52C151.08,739.28,174,732,192.48,728ZM116,583.91c-5.12-11.77-2.37-24.31,6.13-28s19.56,2.83,24.68,14.6,2.37,24.31-6.13,28S121.12,595.68,116,583.91Zm21.53,122.23c-4.77-11.92-1.66-24.37,6.95-27.83s19.46,3.41,24.24,15.32,1.67,24.37-6.95,27.82S142.31,718.05,137.53,706.14Z" transform="translate(-102.11 -129.32)"/><path class="cls-20" d="M757.43,165.43c.09-.22.17-.44.27-.65,1.69-4,.15-8.93-3.77-11.87l-.34-.26c-4.2-3.14-9.82-3.05-13,.25q-1.81,1.88-3.56,3.79c-25.41,28-39.49,64.54-60.3,96a0,0,0,0,1-.06,0c-4-10.28-13.57-20-26.35-25.55-20.47-8.86-41.5-3.58-47,11.8S610,274,630.45,282.85a51.11,51.11,0,0,0,17.28,4.23,36.7,36.7,0,0,0,16.69-2.67c8.21-3.57,13.57-12.17,18.76-18.87,6.41-8.27,12.22-17,17.8-25.83,11.07-17.53,21.28-35.65,33.72-52.24a0,0,0,0,1,.06,0c4.27,40.09,23.85,90.13-29.66,93.91,0,0,0,.06,0,.07C792.85,287.88,741.93,205.72,757.43,165.43Z" transform="translate(-102.11 -129.32)"/></g><path class="cls-21" d="M860.5,507.5C860.5,706.6,699.1,868,500,868S139.5,706.6,139.5,507.5,300.9,147,500,147,860.5,308.4,860.5,507.5Z" transform="translate(-102.11 -129.32)"/></g></g><g id="Layer_1" data-name="Layer 1"><path class="cls-2" d="M307.5,811l-5-4.5q37.08-6.91,76-15.5Q409,784.25,438,777q2.5-10.5,5-21a212.39,212.39,0,0,1-47.43-15.81C374.06,730.07,360,718.62,351,712c-12.89-9.53-18.48-16.5-20.31-18.59A124.14,124.14,0,0,1,313,667a162.74,162.74,0,0,1-39,5,101.79,101.79,0,0,1,12-4c.85-.23,4.24-1.12,9-2a133.26,133.26,0,0,1,17-2,102,102,0,0,1-9-51,52.38,52.38,0,0,1-25-6c4.71.74,8.45,1.47,11,2,2,.42,3.13.68,5,1a76.36,76.36,0,0,0,9,1,68.09,68.09,0,0,1,14-31c-4.42-1.69-9.11-3.67-14-6-5.5-2.62-10.5-5.33-15-8a119.49,119.49,0,0,1,30,11,110.58,110.58,0,0,0,13.47-31.73A96.66,96.66,0,0,0,334,531a334.06,334.06,0,0,1,32.63-116.65A379.15,379.15,0,0,0,309.5,329.5a378.73,378.73,0,0,0-79.91-67.86c-9,28.65-48.53,149.43-55.28,166.94,0,0-17.94-32.82-21.81-49.08-7-29.39-14.44-60.28-12.76-99.68.95-22.4,2.65-54.29,20.76-89.32a180.24,180.24,0,0,1,22-33,255.09,255.09,0,0,1,28.59.58c5.89.55,11.41,1.42,11.41,1.42,1.24.19,2.27.37,3,.5q15.13-4.83,31-9.5,16.28-4.78,32-9l27,18L435.56,367.69l29.23-11.43,10.58-29.8,17.45,28.35,6.27-13.88,11.63,19.23c10-1.4,30.17,4,38.87,6.77,3-2.72,4.53-4.33,5.56-6A53.1,53.1,0,0,0,561.56,346c1.52-7.27,27-60.21,105.94-214a325.36,325.36,0,0,0,36.86,15,325.32,325.32,0,0,0,40.37,10.75l60.46-22.82,3.9,5.08c6.06,85.05,16.25,195.26,3.53,279.12-21.91-41.12-61.2-122.5-83.81-163.67-17.31,24.46-36.19,49.75-56.76,75.59-19.58,24.59-39,47.57-58,69a228.37,228.37,0,0,1,33.15,59.93c12.26,33.3,6.17,54.26,19.34,92.2,10.39,29.91,32.52,61,27.9,80.87-3,53.83-79.43,105.2-113.29,116.62l11.47,27.23L719.5,792a306.62,306.62,0,0,1-77,48c-32.14,13.91-58.55,18.78-74,21.54a374.15,374.15,0,0,1-106,3.46,365.92,365.92,0,0,1-155-54Z" transform="translate(-102.11 -129.32)"/><path class="cls-22" d="M461,152" transform="translate(-102.11 -129.32)"/><path class="cls-22" d="M620,409" transform="translate(-102.11 -129.32)"/><path class="cls-23" d="M619.54,496.87c-20,2.77-92.89,20.48-86.9,27.68,6.07,21.79,40.92,25.19,50.94,20C603.67,537.49,625.31,503.28,619.54,496.87Z" transform="translate(-102.11 -129.32)"/><path class="cls-24" d="M555.71,515a71.23,71.23,0,0,0,11,13c20.83,3.69,31.74-11.32,29.4-25.44Z" transform="translate(-102.11 -129.32)"/><path d="M355.5,482l22-10c24.83,5.56,65.15,32,90,35,3.83-1.08,9.78-4.52,12-9v-9a56,56,0,0,0-6.5,2.5l-3,6-2,1c-82.2-29.51-78.06-51.44-116-21v3l2,2Z" transform="translate(-102.11 -129.32)"/><path class="cls-23" d="M375.17,502.37c20,2.77,92.89,20.48,86.9,27.68-6.07,21.79-40.92,25.19-50.94,20C391,543,369.39,508.78,375.17,502.37Z" transform="translate(-102.11 -129.32)"/><path class="cls-24" d="M439,520.5a71.63,71.63,0,0,1-11,13c-20.83,3.69-31.75-11.32-29.41-25.44Z" transform="translate(-102.11 -129.32)"/><path class="cls-25" d="M508,612c10.07-4.32,26.73-12.15,28-25-17.66-.14-44.42,1.45-62,1-10,9,29.06,20.21,30,23v24c-3.26,5-16.49,22.26-19,27,1.8,3,7.25,13.35,10,15l29-2c3.28-4,8-12.72,9-18l-24-20Z" transform="translate(-102.11 -129.32)"/><path d="M511.5,673l-1.07-34.65-6.82-1.85q-.32,18.25-.61,36.5v4h8.5v-4Z" transform="translate(-102.11 -129.32)"/><path class="cls-26" d="M506,609.5a36.5,36.5,0,0,0,13-6l7-5,4-3a7.45,7.45,0,0,0,2-4,7,7,0,0,0,0-2c-6.67.33-29.33,1-34,1H475v2l14,10,13,7Z" transform="translate(-102.11 -129.32)"/><path class="cls-27" d="M356.5,586c-22.85-6.91-46.36-17.93-68.16-20.33C321.18,603,401.92,611.1,413.5,615c-1.91,21.49-123.12-21.94-138-8a161.2,161.2,0,0,0,32,10.5c6,1.28,7.87,1.3,17,3,15.49,2.88,20.11,4.4,31,7,30.27,7.23,45.27,2.93,49.63,12.12a13.53,13.53,0,0,1,.37,9.38c-45.25-2.36-112.45,7.23-125,22a72.5,72.5,0,0,0,10,1.5,74.39,74.39,0,0,0,19-1c11.44-2,23-3.49,34.38-5.55,30.85-5.59,41-6.54,46.62-7,7.58-.55,13.89-.73,18.29-.78a62.9,62.9,0,0,0,42,14.95c16.77-.43,32.72-6,37.09-15.77l-3.43.6a61.47,61.47,0,0,1-62,0c2,.32,8.58,1.1,14-3a15.45,15.45,0,0,0,3-3c-9.94,3.41-19.81,0-23.5-6.9-3-5.5-1.05-11.53-.5-13.1a27.87,27.87,0,0,0,25,4c-3.95-.32-12.6-1.64-18.18-8.4a20.41,20.41,0,0,1-1.82-2.6c-.77-5,.14-6.47,1-7,2.66-1.64,7,4.35,16,6,6.4,1.17,12-.64,12-1s-3.08.32-7-1c-2.53-.85-4.39-2.24-8-5-1.56-1.19-3.64-2.86-6-5a11.14,11.14,0,0,0,4-5c.91-2.37,1.28-6-.11-6.71-.33-.17-1.06-.33-2.58.71-7.2,9.93-16.54,6.33-31.55.21C372.64,592.15,362,588.22,356.5,586Z" transform="translate(-102.11 -129.32)"/><path class="cls-28" d="M575.5,741" transform="translate(-102.11 -129.32)"/><path class="cls-29" d="M581.5,751.5a42.51,42.51,0,0,1-8-29.5A154.28,154.28,0,0,0,613,692.5,201.06,201.06,0,0,0,628.5,623q18.12,15.48,36.32,30.89Q673.15,661,681.5,668a225.55,225.55,0,0,1-100,83.5Z" transform="translate(-102.11 -129.32)"/><circle class="cls-30" cx="552.39" cy="531.68" r="2"/><circle class="cls-30" cx="561.39" cy="538.68" r="2"/><circle class="cls-30" cx="533.39" cy="517.68" r="2"/><circle class="cls-30" cx="543.39" cy="524.68" r="2"/><path class="cls-31" d="M521.5,503c3,14.14,9.54,43.31,13,57,46.11,35.77,102.4,66.61,145.56,106.79,34.19-36.22-.45-78.35-10.53-106.94-7.16-17.74-9-44.92-13.21-65.63C643.8,491,629,481.27,616.5,478c-4.17-11.47-11.32-27-14-39-10.48.38-25.65-4-36-2C554.5,459.05,536.69,483.05,521.5,503Z" transform="translate(-102.11 -129.32)"/><path class="cls-32" d="M541,524.5l78-25,5,1c2.24,58.07-87.5,48.3-83,24Z" transform="translate(-102.11 -129.32)"/><circle class="cls-30" cx="501.14" cy="340.35" r="2.17"/><circle class="cls-30" cx="495.88" cy="322.1" r="2.17"/><circle class="cls-30" cx="498.46" cy="330.53" r="2.17"/><path class="cls-33" d="M567.56,436.82C554.52,411.64,532,384,515.5,361a238.82,238.82,0,0,1,97.2,38.38c16,13.59,39.09,65.3,44,96.67-11-6-29.65-13.47-40.68-19.41-3.86-9.58-10.42-26.52-13.26-36.6C593.57,437.36,576.74,437.29,567.56,436.82Z" transform="translate(-102.11 -129.32)"/><path class="cls-34" d="M668.5,376" transform="translate(-102.11 -129.32)"/><circle class="cls-30" cx="528.39" cy="346.68" r="2"/><circle class="cls-30" cx="538.39" cy="349.68" r="2"/><path class="cls-29" d="M614.55,401.08l34.84-43.46,37.87-44.88,32.63-43.36L730.5,257c-1.06-3.41-2.69-8.28-5-14-4.91-12.15-10.19-20.45-13-26-7.73-15.28-12-21.22-21-37-5.9-10.34-14-25.22-23-44l-8.83,11.26-11,21.49-27.48,54L595.7,273.36,575,315.47,561,348l-9.86,17.5-3.27.93a204.1,204.1,0,0,1,66.65,34.67Z" transform="translate(-102.11 -129.32)"/><polygon class="cls-35" points="614.06 94.45 715.38 140.01 716.34 169.84 716.58 201.64 715.92 229.86 713.76 262.84 711.56 282.4 710.55 289.48 707 283.13 690.51 250.99 678.38 226.9 666.45 203.15 659.91 190.16 635.2 141.95 629.15 130.6 614.06 94.45"/><circle class="cls-36" cx="468.39" cy="231.68" r="3.5"/><circle class="cls-36" cx="508.89" cy="252.18" r="3.5"/><circle class="cls-36" cx="564.89" cy="42.18" r="3.5"/><path class="cls-37" d="M669.5,133q9.29,20.44,18.56,40.9l27.23,48.27,5.35,3.61,18,8.12,59.86,26.92,19,9.18-.93-20-5-76.69-2.38-32.49L806,136l-1.85-.73-15.44,5.82-41,15.49-3.89.95-47-13.19L673.5,134Z" transform="translate(-102.11 -129.32)"/><circle class="cls-30" cx="679.52" cy="134.53" r="3.24"/><circle class="cls-30" cx="696.37" cy="142.1" r="3.24"/><circle class="cls-30" cx="644.25" cy="119.76" r="3.24"/><circle class="cls-30" cx="662.67" cy="126.95" r="3.24"/><path class="cls-22" d="M316,160.4,436,368c-13.76,6.75-65,42-65,42l-1,1c-.33.33-.68.66-1,1-.76.79-.77.92-1,1-.53.18-1.19-.25-2-1a14.65,14.65,0,0,1-3-4c-14.32-30-40-53.09-62-78a518.22,518.22,0,0,0-72-67,151.48,151.48,0,0,1,24-52A153.72,153.72,0,0,1,316,160.4Z" transform="translate(-102.11 -129.32)"/><path class="cls-38" d="M413,415" transform="translate(-102.11 -129.32)"/><path class="cls-27" d="M722,552.19C714.1,557.08,704,563,691.8,569a389.31,389.31,0,0,1-43,18,409.45,409.45,0,0,1-52,14.5,25.34,25.34,0,0,0,7,5.5c7.62,4,15.33,2.84,21,2,12.31-1.83,24.75-2.81,37-5,0,0,12.54-2.24,30-5,10.21-1.61,24.89-3.71,43-5.5-4.91,1.34-11.85,3.21-20.21,5.39-12.13,3.16-18.33,4.76-24.79,6.11-6.09,1.26-14.6,2.82-25,4-8.13.58-30.31,2.48-47,8-4.92,1.62-10.41,3.91-12.63,9.12a14.44,14.44,0,0,0-.37,9.38,597.11,597.11,0,0,1,73,9.5c18.72,3.62,36.09,7.91,52,12.5-2.52-.08-5.95-.22-10-.5-8-.55-14.45-1.36-19-2-15.25-2.15-17.33-3.51-33-6-16.42-2.61-15.24-1.29-31-4a100.62,100.62,0,0,0-16-2,82.39,82.39,0,0,0-19.29,1.72,62.9,62.9,0,0,1-42,15c-16.77-.43-32.72-6-37.09-15.77l3.43.6a61.47,61.47,0,0,0,62,0c-2,.32-8.58,1.09-14-3a15.45,15.45,0,0,1-3-3c9.94,3.41,19.81,0,23.5-6.91,3-5.5,1.05-11.52.5-13.09a27.87,27.87,0,0,1-25,4c4-.32,12.6-1.64,18.18-8.41a19.64,19.64,0,0,0,1.82-2.59c.77-4.95-.14-6.47-1-7-2.66-1.64-7,4.35-16,6-6.4,1.17-12-.64-12-1s3.08.31,7-1c2.53-.85,4.39-2.25,8-5,1.56-1.19,3.64-2.86,6-5a11.08,11.08,0,0,1-4-5c-.91-2.37-1.28-6,.11-6.72.33-.16,1.06-.32,2.58.72a18.38,18.38,0,0,0,6.2,5.23c9,4.52,19.6-.36,25.11-2.73,14.13-6.09,29.82-8,44-14C670.59,569.79,692.41,561.31,722,552.19Z" transform="translate(-102.11 -129.32)"/><path class="cls-27" d="M288.34,565.67c7.86,4.89,18,10.79,30.16,16.83a388.4,388.4,0,0,0,43,18,407.79,407.79,0,0,0,52,14.5,25.34,25.34,0,0,1-7,5.5c-7.62,4-15.33,2.84-21,2-12.31-1.82-24.75-2.81-37-5,0,0-12.54-2.24-30-5-10.21-1.61-24.89-3.71-43-5.5,4.91,1.34,11.85,3.21,20.21,5.39,12.13,3.16,18.33,4.77,24.79,6.11,6.09,1.27,14.6,2.82,25,4,8.12.59,30.31,2.48,47,8,4.92,1.63,10.41,3.91,12.63,9.12a14.5,14.5,0,0,1,.37,9.38,597.11,597.11,0,0,0-73,9.5c-18.73,3.62-36.09,7.91-52,12.5,2.52-.08,5.95-.22,10-.5,8-.55,14.45-1.36,19-2,15.25-2.15,17.33-3.51,33-6,16.42-2.61,15.24-1.29,31-4a101.64,101.64,0,0,1,16-2,82.39,82.39,0,0,1,19.29,1.72,62.9,62.9,0,0,0,42,14.95c16.77-.43,32.72-6,37.09-15.77l-3.43.6a61.47,61.47,0,0,1-62,0c2,.32,8.58,1.1,14-3a15.45,15.45,0,0,0,3-3c-9.94,3.41-19.81,0-23.5-6.9-3-5.5-1.05-11.53-.5-13.1a27.87,27.87,0,0,0,25,4c-3.95-.32-12.6-1.64-18.18-8.4a20.41,20.41,0,0,1-1.82-2.6c-.77-5,.14-6.47,1-7,2.66-1.64,7,4.35,16,6,6.4,1.17,12-.64,12-1s-3.08.32-7-1c-2.53-.85-4.39-2.24-8-5-1.56-1.19-3.64-2.86-6-5a11.14,11.14,0,0,0,4-5c.91-2.37,1.28-6-.11-6.71-.33-.17-1.06-.33-2.58.71a18.38,18.38,0,0,1-6.2,5.23c-9,4.52-19.6-.36-25.11-2.73-14.14-6.09-29.82-8-44-14C339.71,583.27,317.89,574.79,288.34,565.67Z" transform="translate(-102.11 -129.32)"/></g><g id="Layer_5" data-name="Layer 5"><path class="cls-2" d="M601.86,741.87c-.15,1.4,28.11,30.8,23.95,30.77-9.92,31.58-40.46,75.62-52.68,102C544.72,858,547.17,824.47,536,803l-26,1.61c-2.58,15.87-19.55,49.32-7.55,63.92-38.37,24-26.38,8.23-52.78-16.61-45.85-54.67-40.88-49-5.4-95.78,74,22.55,147.35-16.26,157.63-14.27" transform="translate(-102.11 -129.32)"/><path class="cls-39" d="M552.21,860.79l-18.47,73.69c-47.94-83.07-38.12-68-23.78-129.87l27.05-.29,15.2,56.47" transform="translate(-102.11 -129.32)"/><path class="cls-24" d="M567,752q-5.55,24.63-11.09,49.26L489,806l-6.93-14.89L474,765.27l39.29-2.51,36.59-5.46,13.28-3.22L568,753" transform="translate(-102.11 -129.32)"/><path d="M358,556.21c-1.76-3.56-1.56-4.05,2.3-5,.73-.19.85-.5.83-1.17-.1-2.88.23-3.22,3-3.32l1-.07c-.5-3,.35-4.1,3.41-4.22,1,0,1.07-.47,1-1.13-.19-1.2.21-2.31,1.29-2.55,2-.47,1.31-1.51,1.07-2.83-1.42-7.87-1.26-15.63,1.44-23.3a45.08,45.08,0,0,1,22.92-25.89,51.67,51.67,0,0,1,48.3,2.32,45.47,45.47,0,0,1,18.78,22.92c3.79,10.07,3.56,20,.49,29.93a39.69,39.69,0,0,1-7.62,13.21,46.56,46.56,0,0,1-26.59,16,49.62,49.62,0,0,1-24.31-.91,48,48,0,0,1-22.45-13.37,40.8,40.8,0,0,1-8.09-12.29,1.8,1.8,0,0,0-2-1.26c-1.06.12-1.3.59-1.26,1.77.07,1.76-1.31,2.37-3,2.46-.53,0-1.77-.55-1.37.87.74,2.66-1.25,2.86-2.9,3.42-.4.13-1-.41-1,.75.1,3.37-.94,4.15-4.31,3.71-.32,0-.65-.06-1-.09Zm55.58,12.43c12.61.31,21-2.37,28.28-7.95,11-8.4,16.66-19.67,17-33.51a40.64,40.64,0,0,0-7.3-24.12A39.65,39.65,0,0,0,428,486.29a36.49,36.49,0,0,0-20.33.62,42.28,42.28,0,0,0-17,10.23,41.77,41.77,0,0,0-11.22,19.47,40,40,0,0,0-.22,20.43,42,42,0,0,0,12.62,21.28C399.06,564.78,407.34,568.33,413.59,568.64Z" transform="translate(-102.11 -129.32)"/><path d="M365.2,673.54a4.13,4.13,0,0,0-1.12.39c-.94.69-2,1-2.88.18a2.8,2.8,0,0,1-.8-3.06c.42-1.19.76-1.84-1.09-1.83s-2.05-1.54-2-3c.05-1,.22-1.64-1.24-2-2-.46-1.85-2.41-1.47-4,.21-.85.33-1-.68-1.18-2.39-.35-2.87-1.23-2.49-3.62.06-.4,1.07-1,0-1.36-3-1.12-2.38-3.26-1.61-5.47-3.19-.45-3.5-1.3-2.11-5.91-3.3-.7-3.88-1.68-2.57-4.74.32-.74.48-1.25-.28-1.56-2.62-1.08-2-2.69-.74-4.37.32-.44.56-.66,0-1.1-3-2.17-3-2.43-.69-5.64-2.84-.27-4.52-2-1.26-6-2.46-.63-3.1-2.08-1.77-4.22.42-.67.21-.92-.36-1.31-1.86-1.28-1.2-2.88-.14-4.15.79-1,.93-1.3-.14-2.15-2-1.58-.58-3,.62-4.2.5-.49,1.06-.59.35-1.42-2.25-2.6-2.13-3.32.66-5.67-.34-1.09-2.19-1.1-1.91-2.66a4.5,4.5,0,0,1,1.94-2.92c1.15-.8.13-1.34-.13-2-.77-1.82.41-3,1.61-3.78,1-.6,2.44-1.48,3.62.13s.32,3.06-.76,4.25c-.53.59-1.14,1-.53,1.77,1.17,1.57.2,2.83-.79,3.81-.66.65-.94.95-.26,1.64,1.42,1.46,1.12,2.82-.23,4.12-.68.66-1.22,1.17,0,2a2.34,2.34,0,0,1,.34,3.79c-.9,1-.94,1.67.11,2.59,1.49,1.31-.27,2.69-.08,3.88s2.13,2,1.31,3.72c-.21.44-.34,1-.69,1.26-1.17.79-.75,1,.24,1.53,1.54.88,2.05,2.34.76,3.82-.92,1-1.25,1.41.47,2,2.08.69,1.92,2.47.81,3.93-.77,1-.62,1.31.43,1.66,1.83.62,2,1.85,1.27,3.45-.37.8-1,1.45.24,2.41s1.27,2.51.25,3.91c-.6.83-.69,1.45.66,1.58,2.46.23,2.44,2,2,3.73-.28,1-.59,1.51.9,1.68a2.08,2.08,0,0,1,1.67,2.77c-.33,1.36-.39,2.09,1.15,2.94,1.92,1.05.89,3,.25,4.53,3.32.2,3.32.2,3.66,3.8,0,.42.11.85.56,1,3.33.94,2.61,3.21,1.72,5.51,4-.12,4.3,2,3.32,4.43-.14.37-.49.66-.11,1.07Z" transform="translate(-102.11 -129.32)"/><path d="M401.45,781c-2.09-4-1.71-4.93,2.12-5.15,0-.73-.56-1.12-1-1.56-1.14-1.23-.64-3.21.06-3.45,2.47-.86,1.37-1.78.45-2.9-.09-.12-.07-.32-.13-.47-.64-1.83,1.8-2.73,1.52-3.94-.39-1.67-1.12-3,.73-4.17,1-.62.16-1-.17-1.42-1.84-2.6-1.55-3.57,1.57-5a11.29,11.29,0,0,1-1.38-1.22c-.61-.77-1.35-2.13-.87-2.62,1.92-2,.68-3.43-.33-5.1a1.86,1.86,0,0,1,.15-1.63c.82-1.21.36-1.92-.56-2.81-1.18-1.13-1.46-2.49-.07-3.75.74-.67.7-1.32-.25-1.57a2,2,0,0,1-1.62-2.72,2.91,2.91,0,0,1,3.14-2.11c1.24.07,2.63.14,3.11,1.71.65,2.07-.81,2.88-2.39,3.65,2.2,1.66,4.45,3.15,2.33,6.26-.47.7.52.75.85,1.11,1.26,1.37,2.27,2.83.25,4.44-.68.53-.63.94,0,1.68,1.84,2.08,1.42,3.86-1.06,5.13.56.78,1.08,1.58,1.69,2.29.36.42.66,1,.39,1.3-1.92,1.9-1,3.79-.15,5.73a1,1,0,0,1-.22.86,4.1,4.1,0,0,0-1,4.52c.46,1.66-2.13,1.74-2,2.91s1.73,1.83,1.37,3.38c-.39,1.72-1.72,1.6-3.09,1.62.13,1.41,1.74,2.16,1.33,3.69s-.94,2.42-2.72,2.1c1.11,2.32,2.31,4.45-.88,5.74-1,.4-.22.87-.06,1.3,1,2.51.69,3.41-1.75,4.42-1,.4-1,.89-.75,1.66.63,1.87.8,3.56-1.71,4.07-1.44.29-3.1-1.36-3.25-3.43-.14-1.91.89-3,2.88-2.95.13,0,.26-.16.44-.28-.85-2-1.6-4,.78-5.5.34-.22.61-.47.28-1.14C398.14,782.86,398.42,782.3,401.45,781Z" transform="translate(-102.11 -129.32)"/><path d="M386.34,696.54c5,.61,4.78,2.17,3.77,4.86,1.82.58,4.55.09,4.32,3.26-.09,1.21-2.81,2.37-4.38,2-2-.47-2.55-1.75-1.79-4.54-1-.35-2.26-.21-3.12-1.09-.34-.34-1-.8-1-1,.93-2.49-.68-2.59-2.42-2.89a1.88,1.88,0,0,1-1.51-2c.48-2.17-.67-2-2.18-2.09a2.43,2.43,0,0,1-1.84-4c1.15-1.33,2.81-1,4.19-.86a2.28,2.28,0,0,1,1.79,2.5c-.08,1.13.16,1.49,1.4,1.59C386.36,692.57,387.09,693.84,386.34,696.54Z" transform="translate(-102.11 -129.32)"/><path d="M365.15,673.59c3.24-.42,3.86.17,3.73,3.67,0,.63.16.79.74.92,3.46.78,3.57,1,2.21,4.58a3.91,3.91,0,0,0,0,1.19l.09-.09c-1.39-.1-3.21,1.43-4-.6s-.93-3.67-3.54-4.71c-1.82-.73,0-3.36.9-5Z" transform="translate(-102.11 -129.32)"/><path d="M357.94,556.16c1,1.11,2.86,2,1.47,3.89-1.21,1.66-2.8,1.91-4.64.92-1.13-.61-1.76-1.4-1.42-2.68a2.42,2.42,0,0,1,2.57-2c.7,0,1.42.38,2.1,0Z" transform="translate(-102.11 -129.32)"/><path d="M347.36,577.93c-2,.06-3.66-1.13-3.61-2.62.07-2,1.75-2.54,3.15-2.52s3.33.09,3.42,2.43C350.4,577.35,348.91,577.64,347.36,577.93Z" transform="translate(-102.11 -129.32)"/><path d="M399.24,717.36a5.33,5.33,0,0,1-1.43.06c-1.28-.27-2.54-.32-3.22-1.94s.88-2.09,1.37-3.09l0,.05a14,14,0,0,1,1.44-.13c1.39,0,2.74.17,3.39,1.68.74,1.71-.44,2.56-1.56,3.42Z" transform="translate(-102.11 -129.32)"/><path d="M403.24,723.54c2.2.1,3.73,1.32,3.3,2.9a3.07,3.07,0,0,1-3.54,2.22c-1.47-.16-2.86-.81-2.95-2.62C400,724.57,401.48,723.46,403.24,723.54Z" transform="translate(-102.11 -129.32)"/><path d="M353.09,561.79c2-.2,3.17.87,3.2,2.68s-1.71,2.34-3.21,2.34c-1.71,0-3.16-.78-3.15-2.78S351.42,561.65,353.09,561.79Z" transform="translate(-102.11 -129.32)"/><path d="M345.3,583.63c-1.81,0-3.28-.89-3.37-2.63-.09-2,1.79-2.46,3.39-2.46s3,.72,3.08,2.63C348.46,583.26,347,583.62,345.3,583.63Z" transform="translate(-102.11 -129.32)"/><path d="M396,712.39c-.67-.75-1.64-.32-2.47-.62-1.14-.43-2.12-.75-2.11-2.18a2.5,2.5,0,0,1,2.21-2.62,3.6,3.6,0,0,1,3,.34c1.32.85,1.88,2,.65,3.39a4.48,4.48,0,0,0-1.28,1.73S396,712.39,396,712.39Z" transform="translate(-102.11 -129.32)"/><path d="M399.19,717.41c1.06.25,2.15.42,3.18.77a2.16,2.16,0,0,1,1.59,1.89,2.24,2.24,0,0,1-1.16,2.15c-1.91,1.39-3.52.62-4.93-.68s.17-2.16.77-3.13c.21-.34.39-.7.6-1Z" transform="translate(-102.11 -129.32)"/><path d="M349.61,572.24c-1.4-.3-2.82-.83-2.93-2.72-.13-2.29,1.81-2.17,3.21-2.38a2.76,2.76,0,0,1,3.19,2.77C353,572,351.19,571.86,349.61,572.24Z" transform="translate(-102.11 -129.32)"/><path d="M371.79,684c1.17.09,1.63-1.8,3.14-1,1.78.93,1.82,2.33,1.26,3.86s-1.63,2.77-3.42,2.36-1.68-2-1.4-3.47c.11-.62.33-1.22.5-1.83Z" transform="translate(-102.11 -129.32)"/></g></svg>